<svg xmlns="http://www.w3.org/2000/svg" viewBox="0 0 64 64">
  <defs>
    <linearGradient id="g" x1="0" y1="0" x2="1" y2="1">
      <stop offset="0" stop-color="#B7A6EE"/>
      <stop offset="1" stop-color="#FFC3A0"/>
    </linearGradient>
  </defs>
  <rect width="64" height="64" rx="16" fill="url(#g)"/>
  <path d="M32 14c-7 0-12 4.6-12 11 0 3 1.2 5.2 3 6.8-.4 1-1 2-1 3.4 0 4.3 4 7.8 10 7.8s10-3.5 10-7.8c0-1.4-.6-2.4-1-3.4 1.8-1.6 3-3.8 3-6.8 0-6.4-5-11-12-11Z" fill="#fff" opacity=".95"/>
  <rect x="24" y="44" width="16" height="5" rx="2.5" fill="#FBE08C"/>
</svg>
